<svg width="267" height="80" viewBox="0 0 267 80" fill="none" xmlns="http://www.w3.org/2000/svg">
<g clip-path="url(#clip0_3684_4853)">
<path d="M267 70.7716C267 72.6423 265.524 74.1387 263.679 74.1387H204.202C202.357 74.1387 200.88 72.6423 200.88 70.7716V10.039C200.88 8.16837 202.357 6.67188 204.202 6.67188H263.648C265.493 6.67188 266.969 8.16837 266.969 10.039L267 70.7716Z" fill="#F47524"/>
<path d="M209.645 26.3133H223.669C226.713 26.3133 229.02 27.0304 230.527 28.4957C232.034 29.961 232.802 32.0187 232.802 34.6999C232.802 37.4435 231.972 39.5947 230.311 41.1535C228.651 42.7124 226.129 43.4918 222.715 43.4918H218.102V53.562H209.645V26.3133ZM218.102 37.9735H220.194C221.823 37.9735 222.992 37.6929 223.638 37.1317C224.284 36.6017 224.622 35.8223 224.622 34.9805C224.653 34.1699 224.345 33.3593 223.761 32.7981C223.177 32.2058 222.1 31.894 220.532 31.894H218.102V37.9735V37.9735ZM234.648 26.3133H243.812L247.595 37.537L251.316 26.3133H259.896L250.947 47.3577C250.393 48.6672 249.747 49.9454 249.04 51.1613C248.425 52.0655 247.595 52.7825 246.611 53.219C245.534 53.749 244.058 54.0296 242.182 54.0296C241.198 54.0296 239.476 53.8737 237.046 53.5931V47.9813C238.492 48.1372 239.507 48.1995 240.183 48.1995C242.121 48.1995 243.32 47.4825 243.751 46.0171L234.648 26.3133Z" fill="white"/>
<path d="M173.264 67.841V46.9213H151.491V52.9696C151.491 58.4879 150.753 63.445 149.246 67.8098H146.57V80H153.028V74.0764H169.604V80H176.063V67.8098H173.264V67.841ZM165.237 67.841H156.965C158.195 62.3538 158.779 57.7085 158.779 53.9673V53.6243H165.237V67.841Z" fill="#0F87C9"/>
<path d="M137.529 40.2494C137.313 41.7459 136.545 43.0865 135.376 44.0218C132.854 45.9236 129.41 45.9236 126.888 44.0218C125.719 43.1177 124.951 41.7771 124.735 40.2806H127.78C128.272 41.8394 129.379 42.5877 131.04 42.5877C132.823 42.5877 133.961 41.8083 134.453 40.2806L137.529 40.2494Z" fill="#0F87C9"/>
<path d="M143.403 46.9213V74.1075H135.868V59.1738L126.212 74.1075H118.585V46.9213H126.181V61.9485L135.899 46.9213H143.403Z" fill="#0F87C9"/>
<path d="M92.3214 46.9213H113.818V52.7202H100.379V57.0538H112.834V62.6033H100.379V67.9345H114.218V74.1075H92.3214V46.9213Z" fill="#0F87C9"/>
<path d="M85.9862 49.1036C84.5408 47.6695 82.3573 46.9213 79.4357 46.9213H66.0888V74.1075H74.1462V64.0374H78.5439C81.773 64.0374 84.2025 63.258 85.7709 61.7303C87.3393 60.2026 88.1389 58.0514 88.1389 55.2767C88.1389 52.5955 87.4316 50.5378 85.9862 49.1036ZM79.405 57.6773C78.7899 58.2385 77.6828 58.5191 76.1144 58.5191H74.1462V52.4396H76.4527C77.9596 52.4396 79.0052 52.7514 79.528 53.3437C80.0816 53.9361 80.3891 54.7155 80.3583 55.5261C80.3583 56.3367 80.02 57.1473 79.405 57.6773Z" fill="#0F87C9"/>
<path d="M38.0725 46.9213H62.5214V53.6243H54.3102V74.1075H46.2836V53.6243H38.0725V46.9213Z" fill="#0F87C9"/>
<path d="M148.907 6.64069H156.934V16.1185H165.668V6.64069H173.725V33.7334H165.668V22.7592H156.934V33.7334H148.907V6.64069Z" fill="#0F87C9"/>
<path d="M137.652 0C137.467 1.49649 136.668 2.8371 135.499 3.74123C134.3 4.70772 132.793 5.23772 131.255 5.17537C129.717 5.20655 128.21 4.70772 127.011 3.74123C125.842 2.8371 125.074 1.49649 124.889 0H127.934C128.426 1.52767 129.502 2.30709 131.194 2.30709C132.977 2.30709 134.115 1.52767 134.607 0H137.652V0Z" fill="#0F87C9"/>
<path d="M143.526 6.64069V33.7334H135.991V18.862L126.365 33.7334H118.769V6.64069H126.335V21.6368L136.053 6.64069H143.526Z" fill="#0F87C9"/>
<path d="M106.499 6.64069H97.734L87.9852 33.7334H96.1655L97.4572 29.2751H106.529L107.821 33.7334H116.217L106.499 6.64069ZM99.1486 23.4139L101.978 13.6867L104.807 23.4139H99.1486Z" fill="#0F87C9"/>
<path d="M85.2788 33.7334H77.283V13.3125H71.0093V21.6368C71.0093 25.0663 70.8248 27.5916 70.4865 29.1816C70.2097 30.6781 69.3486 31.9564 68.057 32.7358C66.7654 33.484 64.7049 33.8581 61.8756 33.8581C60.8607 33.8581 59.8459 33.7646 58.8618 33.5776V28.0592H60.0611C61.1375 28.0592 61.9063 27.8098 62.3369 27.311C62.7674 26.8122 63.0134 25.908 63.0134 24.5674V6.64069H85.2788V33.7334Z" fill="#0F87C9"/>
<path d="M31.3683 6.64069H39.3642V16.1185H48.1289V6.64069H56.1555V33.7334H48.1289V22.7592H39.3642V33.7334H31.3683V6.64069Z" fill="#0F87C9"/>
<path d="M23.5263 9.82075C21.189 7.42012 17.8677 6.20422 13.5622 6.20422C9.349 6.20422 6.0584 7.42012 3.72115 9.91428C1.32239 12.3461 0 16.6485 0 21.0444C0 24.2245 0.768832 26.0016 1.96821 28.0904C3.01382 30.0546 4.64375 31.6758 6.61196 32.7046C8.51866 33.6711 10.9482 34.1699 13.8697 34.1699C16.7913 34.1699 19.1593 33.6087 21.066 32.4864C22.9727 31.3952 24.5104 29.7428 25.4945 27.7475C26.5093 25.721 27.0321 23.1333 27.0321 19.9532C27.0014 15.6508 25.8635 12.2525 23.5263 9.82075ZM17.5909 26.1575C16.6375 27.311 15.3151 27.9034 13.593 27.9034C11.8708 27.9034 10.5791 27.311 9.62578 26.1263C8.67243 24.9416 8.18037 22.9774 8.18037 20.2338C8.18037 17.4903 8.67243 15.4949 9.65653 14.3102C10.6099 13.1255 12.0553 12.4708 13.5622 12.5331C15.2536 12.5331 16.576 13.1255 17.5601 14.3102C18.5442 15.4949 19.0363 17.3344 19.0363 19.8909C19.0055 22.8839 18.5442 25.0039 17.5909 26.1575Z" fill="#0F87C9"/>
<path fill-rule="evenodd" clip-rule="evenodd" d="M187.288 35.8846C189.686 35.8846 191.654 37.88 191.654 40.3118C191.654 42.7436 189.686 44.7389 187.288 44.7389C184.889 44.7389 182.921 42.7436 182.921 40.3118C182.921 37.88 184.858 35.8846 187.288 35.8846Z" fill="#0F87C9"/>
<path fill-rule="evenodd" clip-rule="evenodd" d="M187.288 31.1458C188.149 31.1458 189.01 31.3328 189.779 31.707V8.04366C189.779 6.76541 188.764 6.67188 187.503 6.67188H187.041C185.781 6.67188 184.766 6.76541 184.766 8.04366V31.707C185.565 31.3328 186.426 31.1458 187.288 31.1458Z" fill="#0F87C9"/>
<path fill-rule="evenodd" clip-rule="evenodd" d="M187.288 49.6337C186.426 49.6337 185.565 49.4466 184.797 49.0725V72.6734C184.797 73.9517 185.811 74.1076 187.072 74.1076H187.534C188.794 74.1076 189.809 73.9205 189.809 72.6734V49.0725C189.01 49.4466 188.149 49.6337 187.288 49.6337Z" fill="#0F87C9"/>
</g>
<defs>
<clipPath id="clip0_3684_4853">
<rect width="267" height="80" fill="white"/>
</clipPath>
</defs>
</svg>
